<svg width="28" height="28" viewBox="0 0 28 28" fill="none" xmlns="http://www.w3.org/2000/svg">
<path d="M9.05082 2.96932L10.0407 1.97948C12.2227 4.16421 15.7746 4.16421 17.9596 1.97948L18.9494 2.96932C16.2151 5.70385 11.7825 5.70385 9.05102 2.96932H9.05082ZM16.9692 0.989841L15.9796 0C14.8886 1.09079 13.1113 1.09219 12.0202 0L11.0304 0.989841C12.671 2.63063 15.3288 2.63063 16.9693 0.989841H16.9692ZM20.9288 4.94921L19.9389 3.95936C16.6632 7.23514 11.334 7.23514 8.06103 3.95936L7.07119 4.94921C10.8966 8.77727 17.1006 8.77727 20.9291 4.94921H20.9288ZM21.6999 26.6C20.0061 26.6 18.5942 25.3977 18.2698 23.8H9.72986C9.40565 25.3977 7.99338 26.6 6.29979 26.6C4.60646 26.6 3.19437 25.3977 2.86972 23.8H1.39999C0.628894 23.8 0 23.1698 0 22.4001V16.8001C0 16.0304 0.628894 15.4001 1.39999 15.4001H4.12381L5.9908 9.80016H15.9797L21.5797 15.4001H21.5912L26.6411 16.4611C27.3878 16.647 28.0001 17.4304 28.0001 18.2001V22.4001C28.0001 23.1698 27.3685 23.8 26.6001 23.8H25.1302C24.8058 25.3977 23.3936 26.6 21.7002 26.6H21.6999ZM24.4998 18.2001C24.508 18.5145 24.6365 18.9001 25.1998 18.9001H26.5998V18.2001C26.5998 18.0735 26.4248 17.8501 26.3045 17.8192C26.3045 17.8192 25.4819 17.6255 24.4998 17.4067L24.4998 18.2001ZM3.50002 16.8001H1.40024V17.5001H2.80023C3.35882 17.5001 3.48967 17.121 3.50002 16.8001ZM8.40018 23.1C8.40018 21.9421 7.45683 21.0001 6.30019 21.0001C5.14065 21.0001 4.20021 21.9421 4.20021 23.1C4.20021 24.258 5.14065 25.2 6.30019 25.2C7.45683 25.2 8.40018 24.258 8.40018 23.1ZM11.2001 11.2002H7.00019L5.6002 15.4001H11.2001V11.2002ZM19.6001 15.4001L15.4001 11.2002H12.6001V15.4001H17.2102L16.3054 14.4952C16.0317 14.2216 16.0317 13.7786 16.3054 13.5054C16.579 13.2321 17.0219 13.2317 17.2952 13.5054L19.1899 15.4001H19.6001ZM23.8 23.1C23.8 21.9421 22.8567 21.0001 21.7001 21.0001C20.5405 21.0001 19.6001 21.9421 19.6001 23.1C19.6001 24.258 20.5405 25.2 21.7001 25.2C22.8567 25.2 23.8 24.258 23.8 23.1ZM21.7001 22.4001C21.3118 22.4001 21.0001 22.7131 21.0001 23.1C21.0001 23.487 21.3118 23.8 21.7001 23.8C22.0856 23.8 22.4001 23.487 22.4001 23.1C22.4001 22.7131 22.0856 22.4001 21.7001 22.4001ZM0.000250242 26.6V28H28V26.6H0.000250242ZM6.30019 22.4001C5.91192 22.4001 5.6002 22.7131 5.6002 23.1C5.6002 23.487 5.91192 23.8 6.30019 23.8C6.68574 23.8 7.00019 23.487 7.00019 23.1C7.00019 22.7131 6.68574 22.4001 6.30019 22.4001Z" fill="currentColor"/>
</svg>
